<svg xmlns="http://www.w3.org/2000/svg" height="1171pt" version="1.1" viewBox="0 -176 1171.25 1171" width="1171pt">
<g id="surface1">
<path d="M 1112.6875 0.125 L 58.5625 0.125 C 26.226562 0.125 0 26.351562 0 58.6875 L 0 761.4375 C 0 793.773438 26.226562 820 58.5625 820 L 1112.6875 820 C 1145.023438 820 1171.25 793.773438 1171.25 761.4375 L 1171.25 58.6875 C 1171.25 26.351562 1145.023438 0.125 1112.6875 0.125 Z M 1132.207031 761.4375 C 1132.207031 772.222656 1123.472656 780.957031 1112.6875 780.957031 L 58.5625 780.957031 C 47.777344 780.957031 39.042969 772.222656 39.042969 761.4375 L 39.042969 58.6875 C 39.042969 47.902344 47.777344 39.167969 58.5625 39.167969 L 1112.6875 39.167969 C 1123.472656 39.167969 1132.207031 47.902344 1132.207031 58.6875 Z M 1132.207031 761.4375 " style=" stroke:none;fill-rule:nonzero;fill:rgb(0%,0%,0%);fill-opacity:1;" />
<path d="M 585.625 136.769531 C 469.453125 136.777344 365.988281 210.242188 327.65625 319.914062 C 289.34375 429.582031 324.539062 551.496094 415.425781 623.863281 C 506.316406 696.226562 633.011719 703.214844 731.304688 641.3125 C 739.808594 635.332031 742.144531 623.742188 736.613281 614.945312 C 731.078125 606.148438 719.636719 603.222656 710.558594 608.292969 C 612.738281 669.9375 484.59375 651.058594 408.71875 563.800781 C 332.839844 476.558594 331.925781 347.035156 406.570312 258.71875 C 481.195312 170.40625 609.074219 149.714844 707.746094 209.972656 C 806.414062 270.234375 846.414062 393.445312 801.941406 500.175781 C 801.757812 500.644531 801.601562 501.089844 801.453125 501.570312 C 795.328125 515.835938 787.761719 529.433594 778.855469 542.140625 C 763.898438 549.578125 745.882812 546.824219 733.828125 535.25 C 726.429688 527.976562 722.269531 518.039062 722.269531 507.667969 L 722.269531 234.375 C 722.269531 223.589844 713.535156 214.855469 702.75 214.855469 C 691.964844 214.855469 683.230469 223.589844 683.230469 234.375 L 683.230469 275.582031 C 644.441406 235.808594 585.433594 223.5 533.988281 244.453125 C 482.535156 265.417969 448.921875 315.472656 448.980469 371.019531 L 448.980469 449.105469 C 448.921875 506.300781 484.53125 557.472656 538.195312 577.296875 C 591.863281 597.121094 652.1875 581.367188 689.324219 537.867188 C 701.523438 566.839844 729.882812 585.703125 761.3125 585.75 C 775.914062 585.824219 790.222656 581.699219 802.539062 573.863281 C 803.769531 573.03125 804.917969 572.09375 805.960938 571.050781 C 806.667969 570.339844 807.308594 569.578125 807.914062 568.761719 C 819.914062 552.214844 829.953125 534.335938 837.859375 515.476562 C 838.089844 514.9375 838.292969 514.390625 838.46875 513.835938 C 873.0625 429.535156 863.367188 333.539062 812.621094 257.859375 C 761.875 182.179688 676.75 136.769531 585.625 136.769531 Z M 585.625 546.707031 C 531.746094 546.640625 488.089844 502.980469 488.019531 449.105469 L 488.019531 371.019531 C 488.019531 317.117188 531.722656 273.417969 585.625 273.417969 C 639.527344 273.417969 683.230469 317.117188 683.230469 371.019531 L 683.230469 449.105469 C 683.160156 502.980469 639.503906 546.640625 585.625 546.707031 Z M 585.625 546.707031 " style=" stroke:none;fill-rule:nonzero;fill:rgb(0%,0%,0%);fill-opacity:1;" />
</g>
</svg>