<svg height="640pt" viewBox="-20 -20 640 640" width="640pt" xmlns="http://www.w3.org/2000/svg"><path d="m570 60h-350v-30c0-16.566406-13.433594-30-30-30h-100c-16.566406 0-30 13.433594-30 30v30h-30c-16.566406 0-30 13.433594-30 30v480c0 16.566406 13.433594 30 30 30h540c16.566406 0 30-13.433594 30-30v-480c0-16.566406-13.433594-30-30-30zm-490-30c0-5.523438 4.476562-10 10-10h100c5.523438 0 10 4.476562 10 10v440c0 5.523438-4.476562 10-10 10h-100c-5.523438 0-10-4.476562-10-10zm500 540c0 5.523438-4.476562 10-10 10h-540c-5.523438 0-10-4.476562-10-10v-480c0-5.523438 4.476562-10 10-10h30v390c0 16.566406 13.433594 30 30 30h100c16.566406 0 30-13.433594 30-30v-390h350c5.523438 0 10 4.476562 10 10zm0 0"/><path d="m530 100h-260c-16.566406 0-30 13.433594-30 30v40c0 16.566406 13.433594 30 30 30h260c16.566406 0 30-13.433594 30-30v-40c0-16.566406-13.433594-30-30-30zm10 70c0 5.523438-4.476562 10-10 10h-260c-5.523438 0-10-4.476562-10-10v-40c0-5.523438 4.476562-10 10-10h260c5.523438 0 10 4.476562 10 10zm0 0"/><path d="m440 220h-80c-5.523438 0-10 4.476562-10 10v80c0 5.523438 4.476562 10 10 10h80c5.523438 0 10-4.476562 10-10v-80c0-5.523438-4.476562-10-10-10zm-10 80h-60v-60h60zm0 0"/><path d="m330 220h-80c-5.523438 0-10 4.476562-10 10v80c0 5.523438 4.476562 10 10 10h80c5.523438 0 10-4.476562 10-10v-80c0-5.523438-4.476562-10-10-10zm-10 80h-60v-60h60zm0 0"/><path d="m550 220h-80c-5.523438 0-10 4.476562-10 10v80c0 5.523438 4.476562 10 10 10h80c5.523438 0 10-4.476562 10-10v-80c0-5.523438-4.476562-10-10-10zm-10 80h-60v-60h60zm0 0"/><path d="m440 340h-80c-5.523438 0-10 4.476562-10 10v80c0 5.523438 4.476562 10 10 10h80c5.523438 0 10-4.476562 10-10v-80c0-5.523438-4.476562-10-10-10zm-10 80h-60v-60h60zm0 0"/><path d="m330 340h-80c-5.523438 0-10 4.476562-10 10v80c0 5.523438 4.476562 10 10 10h80c5.523438 0 10-4.476562 10-10v-80c0-5.523438-4.476562-10-10-10zm-10 80h-60v-60h60zm0 0"/><path d="m550 340h-80c-5.523438 0-10 4.476562-10 10v80c0 5.523438 4.476562 10 10 10h80c5.523438 0 10-4.476562 10-10v-80c0-5.523438-4.476562-10-10-10zm-10 80h-60v-60h60zm0 0"/><path d="m440 460h-80c-5.523438 0-10 4.476562-10 10v80c0 5.523438 4.476562 10 10 10h80c5.523438 0 10-4.476562 10-10v-80c0-5.523438-4.476562-10-10-10zm-10 80h-60v-60h60zm0 0"/><path d="m330 460h-80c-5.523438 0-10 4.476562-10 10v80c0 5.523438 4.476562 10 10 10h80c5.523438 0 10-4.476562 10-10v-80c0-5.523438-4.476562-10-10-10zm-10 80h-60v-60h60zm0 0"/><path d="m550 460h-80c-5.523438 0-10 4.476562-10 10v80c0 5.523438 4.476562 10 10 10h80c5.523438 0 10-4.476562 10-10v-80c0-5.523438-4.476562-10-10-10zm-10 80h-60v-60h60zm0 0"/></svg>